<?xml version="1.0" standalone="no"?>
<!DOCTYPE svg PUBLIC "-//W3C//DTD SVG 20010904//EN"
 "http://www.w3.org/TR/2001/REC-SVG-20010904/DTD/svg10.dtd">
<svg version="1.0" xmlns="http://www.w3.org/2000/svg"
 width="260.000000pt" height="260.000000pt" viewBox="0 0 260.000000 260.000000"
 preserveAspectRatio="xMidYMid meet">
<metadata>
Created by potrace 1.11, written by Peter Selinger 2001-2013
</metadata>
<g transform="translate(0.000000,260.000000) scale(0.100000,-0.100000)"
fill="#000000" stroke="none">
<path d="M0 1300 l0 -1300 1300 0 1300 0 0 1300 0 1300 -1300 0 -1300 0 0
-1300z m1645 1046 c100 -27 201 -82 273 -151 l67 -63 -58 -85 c-104 -151 -123
-159 -220 -93 -134 92 -159 101 -277 101 -122 0 -171 -17 -235 -80 -93 -94
-107 -258 -29 -339 48 -49 102 -79 261 -143 189 -75 248 -108 319 -178 128
-126 162 -301 104 -531 -52 -202 -194 -378 -376 -465 -203 -96 -465 -96 -673
1 -108 51 -251 165 -251 200 0 6 32 53 71 106 77 104 117 132 163 114 14 -5
63 -38 109 -73 119 -91 174 -110 307 -105 93 3 111 7 158 33 92 50 146 137
158 255 8 81 -7 139 -48 186 -44 50 -93 76 -262 138 -188 70 -260 111 -329
185 -119 129 -147 331 -76 544 37 113 68 165 147 249 95 101 220 173 342 197
30 6 64 13 75 15 39 9 221 -3 280 -18z"/>
</g>
</svg>
